<svg width="60" height="56" viewBox="0 0 60 56" version="1.1" xmlns="http://www.w3.org/2000/svg" xmlns:xlink="http://www.w3.org/1999/xlink">
<title>Package icon</title>
<desc>Created using Figma</desc>
<g id="Canvas" transform="translate(-1882 -54)">
<g id="Package icon">
<g id="Rectangle">
<use xlink:href="#path0_fill" transform="translate(1882 71)" fill="#FFFFFF"/>
<mask id="mask0_outline_ins">
<use xlink:href="#path0_fill" fill="white" transform="translate(1882 71)"/>
</mask>
<g mask="url(#mask0_outline_ins)">
<use xlink:href="#path1_stroke_2x" transform="translate(1882 71)" fill="#E5E5E5"/>
</g>
</g>
<g id="Rectangle 6">
<mask id="mask1_outline_ins">
<use xlink:href="#path2_fill" fill="white" transform="translate(1906 72)"/>
</mask>
<g mask="url(#mask1_outline_ins)">
<use xlink:href="#path3_stroke_2x" transform="translate(1906 72)" fill="#E5E5E5"/>
</g>
</g>
<g id="Rectangle 3">
<use xlink:href="#path4_fill" transform="translate(1887 93)" fill="#485051"/>
</g>
<g id="Rectangle 4">
<use xlink:href="#path5_fill" transform="translate(1887 98)" fill="#485051"/>
</g>
<g id="Rectangle 5">
<use xlink:href="#path6_fill" transform="translate(1887 103)" fill="#485051"/>
</g>
<g id="Rectangle 2">
<use xlink:href="#path7_fill" transform="translate(1882.5 54)" fill="#FFFFFF"/>
<mask id="mask2_outline_ins">
<use xlink:href="#path7_fill" fill="white" transform="translate(1882.5 54)"/>
</mask>
<g mask="url(#mask2_outline_ins)">
<use xlink:href="#path8_stroke_2x" transform="translate(1882.5 54)" fill="#E5E5E5"/>
</g>
</g>
<g id="Rectangle 6">
<mask id="mask3_outline_ins">
<use xlink:href="#path9_fill" fill="white" transform="translate(1906 54)"/>
</mask>
<g mask="url(#mask3_outline_ins)">
<use xlink:href="#path10_stroke_2x" transform="translate(1906 54)" fill="#E5E5E5"/>
</g>
</g>
</g>
</g>
<defs>
<path id="path0_fill" d="M 0 4C 0 1.79086 1.79086 0 4 0L 56 0C 58.2091 0 60 1.79086 60 4L 60 35C 60 37.2091 58.2091 39 56 39L 4 39C 1.79086 39 0 37.2091 0 35L 0 4Z"/>
<path id="path1_stroke_2x" d="M 4 2L 56 2L 56 -2L 4 -2L 4 2ZM 58 4L 58 35L 62 35L 62 4L 58 4ZM 56 37L 4 37L 4 41L 56 41L 56 37ZM 2 35L 2 4L -2 4L -2 35L 2 35ZM 4 37C 2.89543 37 2 36.1046 2 35L -2 35C -2 38.3137 0.686292 41 4 41L 4 37ZM 58 35C 58 36.1046 57.1046 37 56 37L 56 41C 59.3137 41 62 38.3137 62 35L 58 35ZM 56 2C 57.1046 2 58 2.89543 58 4L 62 4C 62 0.686292 59.3137 -2 56 -2L 56 2ZM 4 -2C 0.686292 -2 -2 0.686292 -2 4L 2 4C 2 2.89543 2.89543 2 4 2L 4 -2Z"/>
<path id="path2_fill" d="M 0 0L 12 0L 12 16C 12 17.1046 11.1046 18 10 18L 2 18C 0.895431 18 0 17.1046 0 16L 0 0Z"/>
<path id="path3_stroke_2x" d="M 0 0L 0 -2L -2 -2L -2 0L 0 0ZM 12 0L 14 0L 14 -2L 12 -2L 12 0ZM 0 2L 12 2L 12 -2L 0 -2L 0 2ZM 10 0L 10 16L 14 16L 14 0L 10 0ZM 10 16L 2 16L 2 20L 10 20L 10 16ZM 2 16L 2 0L -2 0L -2 16L 2 16ZM 2 16L -2 16C -2 18.2091 -0.209139 20 2 20L 2 16ZM 10 16L 10 20C 12.2091 20 14 18.2091 14 16L 10 16Z"/>
<path id="path4_fill" d="M 0 1C 0 0.447715 0.447715 0 1 0L 16 0C 16.5523 0 17 0.447715 17 1C 17 1.55228 16.5523 2 16 2L 1 2C 0.447715 2 0 1.55228 0 1Z"/>
<path id="path5_fill" d="M 0 1C 0 0.447715 0.447715 0 1 0L 11 0C 11.5523 0 12 0.447715 12 1C 12 1.55228 11.5523 2 11 2L 1 2C 0.447715 2 0 1.55228 0 1Z"/>
<path id="path6_fill" d="M 0 1C 0 0.447715 0.447715 0 1 0L 15 0C 15.5523 0 16 0.447715 16 1C 16 1.55228 15.5523 2 15 2L 1 2C 0.447715 2 0 1.55228 0 1Z"/>
<path id="path7_fill" d="M 10.3326 1.92879C 11.0573 0.731477 12.355 0 13.7546 0L 44.7953 0C 46.1678 0 47.4444 0.703635 48.1773 1.86403L 59 19L 0 19L 10.3326 1.92879Z"/>
<path id="path8_stroke_2x" d="M 59 19L 59 21L 62.6287 21L 60.691 17.932L 59 19ZM 0 19L -1.711 17.9644L -3.54834 21L 0 21L 0 19ZM 13.7546 2L 44.7953 2L 44.7953 -2L 13.7546 -2L 13.7546 2ZM 46.4863 2.93201L 57.309 20.068L 60.691 17.932L 49.8683 0.796042L 46.4863 2.93201ZM 59 17L 0 17L 0 21L 59 21L 59 17ZM 1.711 20.0356L 12.0436 2.9644L 8.62157 0.893184L -1.711 17.9644L 1.711 20.0356ZM 44.7953 2C 45.4816 2 46.1199 2.35182 46.4863 2.93201L 49.8683 0.796042C 48.7689 -0.944548 46.854 -2 44.7953 -2L 44.7953 2ZM 13.7546 -2C 11.6553 -2 9.70861 -0.902785 8.62157 0.893184L 12.0436 2.9644C 12.4059 2.36574 13.0548 2 13.7546 2L 13.7546 -2Z"/>
<path id="path9_fill" d="M 3 0L 9 0L 12 19L 0 19L 3 0Z"/>
<path id="path10_stroke_2x" d="M 3 0L 3 -2L 1.29101 -2L 1.02447 -0.311925L 3 0ZM 9 0L 10.9755 -0.311925L 10.709 -2L 9 -2L 9 0ZM 12 19L 12 21L 14.3406 21L 13.9755 18.6881L 12 19ZM 0 19L -1.97553 18.6881L -2.34057 21L 0 21L 0 19ZM 3 2L 9 2L 9 -2L 3 -2L 3 2ZM 7.02447 0.311925L 10.0245 19.3119L 13.9755 18.6881L 10.9755 -0.311925L 7.02447 0.311925ZM 12 17L 0 17L 0 21L 12 21L 12 17ZM 1.97553 19.3119L 4.97553 0.311925L 1.02447 -0.311925L -1.97553 18.6881L 1.97553 19.3119Z"/>
</defs>
</svg>
