<?xml version="1.0" encoding="utf-8"?>
<!-- Generator: Adobe Illustrator 19.0.0, SVG Export Plug-In . SVG Version: 6.00 Build 0)  -->
<svg version="1.1" id="Layer_1" xmlns="http://www.w3.org/2000/svg" xmlns:xlink="http://www.w3.org/1999/xlink" x="0px" y="0px"
	 viewBox="851.3 245.6 2016.6 367.1" style="enable-background:new 851.3 245.6 2016.6 367.1;" xml:space="preserve">
<style type="text/css">
	.st0{fill:#33333A;}
	.st1{fill:#A31E22;}
	.st2{fill:#323239;}
	.st3{fill:#36363D;}
	.st4{fill:url(#SVGID_1_);}
	.st5{fill:url(#SVGID_2_);}
	.st6{fill:url(#SVGID_3_);}
	.st7{fill:url(#SVGID_4_);}
	.st8{fill:url(#SVGID_5_);}
</style>
<g id="Layer_1_1_">
	<path class="st0" d="M1204.8,359c-26.7-64.2-86.4-115-178.9-113.4c-6,0.6-12,1.2-18,1.8c-14,2.8-27.2,5.6-39.2,10.4
		c-51.5,20.5-91.1,60.6-108.4,115.2c-32.5,103.1,29,192.1,97.9,222.5c12.8,5.7,26.6,10.6,42.1,14c7.3,0.8,14.6,1.7,22,2.5
		c6.6,0.2,13.2,0.5,19.8,0.7c17.3-3,32.6-3.3,47.2-7.9c54.2-17.1,94.3-54.4,115.6-104.4C1222.8,458.1,1222.3,401.1,1204.8,359z
		 M1198.3,497.2c-20.7,48.1-58.9,84.4-111.2,100.8c-14,4.4-28.7,4.8-45.4,7.6c-6.5-0.2-13-0.5-19.4-0.7c-6.5-0.7-13-1.4-19.4-2.2
		c-15.3-3.4-28.8-8.1-41.4-13.7C898,561.2,835.4,476.1,866,378.8c17.5-55.6,55.2-94.5,107.6-115.2c10-3.9,21.1-6.3,32.4-8.6
		c6.6-0.7,13.2-1.4,19.8-2.2c89.7-0.2,144.8,45.4,171.7,107.6C1214.8,400.3,1215.8,456.5,1198.3,497.2z"/>
	<path class="st1" d="M1026.6,260.7c2.2,0,4.3,0,6.5,0c-48.5,83-97,166.1-145.4,249.1c-0.1,0-0.2,0-0.4,0c-3-6.2-6-12.5-9-18.7
		c-4.3-10.4-6.8-21.9-9.4-33.8c-5.5-26.1-0.8-57.9,5.8-78.5c15.9-50.2,49.8-85.8,96.1-105.5c11.1-4.7,23.4-7.7,36.4-10.4
		C1013.6,262.1,1020.1,261.4,1026.6,260.7z"/>
	<path class="st1" d="M1037.8,260.7c21.2-0.4,40.1,4.4,55.4,10.4c53.6,21.2,89.5,58.6,105.8,117c10.2,36.6,2.5,81.1-9.7,109.1
		c-1.8,4.2-3.3,9.6-6.5,12.6c0-0.2,0-0.5,0-0.7C1134.5,426.3,1086.1,343.5,1037.8,260.7z"/>
	<path class="st2" d="M1034.5,418.4c13,0.7,15.3,18.4,3.2,21.2c-11,2.6-16.2-10.1-10.8-17.3C1028.7,420,1031.6,419.6,1034.5,418.4z"
		/>
	<path class="st1" d="M955.3,515.2c74.9,0.1,149.8,0.2,224.6,0.4c-26.1,51.1-106.8,100.7-189.4,76.3c-43.3-12.8-80.2-39.4-99.7-76
		c0-0.1,0-0.2,0-0.4C912.4,515.4,933.8,515.3,955.3,515.2z"/>
	<path class="st3" d="M1279,390.3c15.6,0,48.4,0,48.4,0s0,2.2,0.1,4.3c-1.5,0.9-2.6,2.5-2.6,4.4c0,2.8,2.3,5.2,5.2,5.2
		s5.2-2.3,5.2-5.2c0-1.9-1-3.5-2.5-4.4c0-3.8,0-9.5,0-10.1c-16,0-31.9,0-47.9,0c0-14,0-28.1,0-42.1c45.7,0,91.4,0,137.2,0
		c0,14,0,28.1,0,42.1c-16.1,0-32.2,0-48.2,0c0.1,22.2,0.2,44.4,0.4,66.6c1.8,0,3.6,0,5.4,0c0-20.3,0-40.6,0-60.8
		c16.1,0,32.2,0,48.2,0c0-17.9,0-35.8,0-53.6c-49.7,0-99.4,0-149,0C1278.7,354.5,1278.8,372.4,1279,390.3z"/>
	<path class="st3" d="M1488.5,337.4c-11.4,2.6-21.8,8.7-28.1,16.6c-5.2,6.6-9.3,14.4-11.4,24.1c-0.1,0.3-0.1,0.5-0.1,0.8
		c0,1.8-0.1,3.4-0.2,5.3l0,0v11c-1.4,0.9-2.3,2.5-2.3,4.3c0,2.8,2.3,5.2,5.2,5.2c2.8,0,5.2-2.3,5.2-5.2c0-1.8-0.9-3.4-2.3-4.3v-11
		c0-1.6-0.1-4.1,0.2-5.4c1.8-8.3,4.8-14.7,9.3-20.5c5.2-6.5,14-12.3,23-14.8c9.4-2.6,23.4-1.1,34.6-1.1c22.7,0,45.4,0,68,0v37.8
		c-21.4,0-42.7,0-64.1,0c-8.3,0-20.9-1.5-25.9,2.2c-5.9,4.4-4.4,17.8-4.3,28.1c23.8,0.1,47.5,0.2,71.3,0.4c0.1,1.8,0.2,3.6,0.4,5.4
		h5.8c-0.1-3.7-0.2-7.4-0.4-11.2h-71.3c-0.1-7.4-0.5-14.7,2.5-18.7c8.1-1.9,20.1-0.7,29.5-0.7c20.9,0,41.8,0,62.6,0v-49
		c-24.4,0-48.7,0-73.1,0C1511.7,336.6,1498.2,335.1,1488.5,337.4z"/>
	<path class="st3" d="M2066.3,336.6c-15.8,0-31.7,0-47.5,0c-6.3,15.4-12.8,30.9-19.1,46.3l-4.5,9.8c-1.8,0.1-3.5,1.2-4.3,2.9
		c-1.2,2.6-0.1,5.6,2.5,6.8c2.6,1.2,5.6,0.1,6.8-2.5c0.8-1.7,0.6-3.6-0.4-5l3-6.6l0,0c0.1-0.1,0.1-0.3,0.2-0.4l1.3-2.9
		c6.1-14.2,12.2-28.5,18.4-42.7c13.4,0,26.9,0,40.3,0c25.6,59.3,51.1,118.6,76.7,177.8c-14.9,0-29.8,0-44.6,0
		c-5.5-12.6-11-25.2-16.6-37.8c-1.8-4.9-3.6-9.8-5.4-14.8c-10.6,0-21.1,0-31.7,0c-0.7,1.7-1.4,3.4-2.2,5c0,0.1,0,0.2,0,0.4
		c10,0.1,19.9,0.2,29.9,0.4c7.1,17.3,14.2,34.6,21.2,51.8c19.3,0.1,38.6,0.2,58,0.4C2121,462.7,2093.6,399.6,2066.3,336.6z"/>
	
		<linearGradient id="SVGID_1_" gradientUnits="userSpaceOnUse" x1="1353.2853" y1="280.0682" x2="1353.2853" y2="447.0682" gradientTransform="matrix(1 0 0 -1 0 794.6)">
		<stop  offset="0" style="stop-color:#36363D"/>
		<stop  offset="1" style="stop-color:#1D1E25"/>
	</linearGradient>
	<path class="st4" d="M1369,514.5c0-45.2,0-90.5,0-135.7c15.8,0,31.7,0,47.5,0c0-10.4,0-20.9,0-31.3c-42.1,0-84.2,0-126.4,0
		c0,10.4,0,20.9,0,31.3c15.8,0,31.7,0,47.5,0c0,45.2,0,90.5,0,135.7C1348.1,514.5,1358.5,514.5,1369,514.5z"/>
	
		<linearGradient id="SVGID_2_" gradientUnits="userSpaceOnUse" x1="1688.7354" y1="279.6464" x2="1688.7354" y2="447.1722" gradientTransform="matrix(1 0 0 -1 0 794.6)">
		<stop  offset="0" style="stop-color:#36363D"/>
		<stop  offset="1" style="stop-color:#1D1E25"/>
	</linearGradient>
	<path class="st5" d="M1708.8,482.8c-6.1,2.4-17.7,0.7-25.2,0.7c-19,0-37.9,0-56.9,0c0,10.3,0,20.6,0,31c14.8,0.1,29.5,0.2,44.3,0.4
		c55.9,0,79.9,2.8,79.9-55.1c0-8.4-0.7-15-3.2-20.9c-5.1-11.9-16.4-20.1-31-22.7c-22.7-4-54,8.6-58.7-13.3
		c-2.5-12,3.5-20.6,10.4-23.4c6.1-2.4,17.7-0.7,25.2-0.7c19.1,0,38.2,0,57.2,0c0-10.4,0-20.9,0-31.3c-20.5,0-41,0-61.6,0
		c-14,0-29.5-1-39.2,3.2c-17.9,7.7-23.4,23.2-23.4,49.3c0,8.3,0.2,15.6,2.5,21.6c5.8,14.7,17.1,22.3,34.9,25.2
		c21.5,3.5,51.1-7.9,55.4,12.6C1722.2,471.6,1715.9,480,1708.8,482.8z"/>
	
		<linearGradient id="SVGID_3_" gradientUnits="userSpaceOnUse" x1="1852.6843" y1="279.4736" x2="1852.6843" y2="447.1682" gradientTransform="matrix(1 0 0 -1 0 794.6)">
		<stop  offset="0" style="stop-color:#36363D"/>
		<stop  offset="1" style="stop-color:#1D1E25"/>
	</linearGradient>
	<path class="st6" d="M1826.2,347.4c-10.1,0-20.2,0-30.2,0c0,33.7,0,67.4,0,101.2c0,26.4-0.5,45.9,14,57.2
		c17.3,13.4,69.1,8.4,99.4,8.3c0-8.8,0-17.5,0-26.3c-19.1-0.1-38.2-0.2-57.2-0.4c-6.8,0-13.9,0.5-18-2.2c-9.7-6.2-7.9-22.7-7.9-38.5
		C1826.2,413.7,1826.2,380.6,1826.2,347.4z"/>
	
		<linearGradient id="SVGID_4_" gradientUnits="userSpaceOnUse" x1="2043.4353" y1="280.0682" x2="2043.4353" y2="447.616" gradientTransform="matrix(1 0 0 -1 0 794.6)">
		<stop  offset="0" style="stop-color:#36363D"/>
		<stop  offset="1" style="stop-color:#1D1E25"/>
	</linearGradient>
	<path class="st7" d="M2041.1,380.9c3.4,1.4,12.6,27.9,14.8,33.1c14,33.5,28.1,67,42.1,100.4c11,0,22.1,0,33.1,0
		c-23.9-55.4-47.8-110.9-71.6-166.3c-4.4-2-22.5-0.8-29.2-0.7c-1.4,0.1-2.9,0.2-4.3,0.4c-23.4,55.6-46.8,111.1-70.2,166.7
		c10.6,0,21.1,0,31.7,0C2005.3,470,2023.2,425.4,2041.1,380.9z"/>
	
		<linearGradient id="SVGID_5_" gradientUnits="userSpaceOnUse" x1="1521.5776" y1="280.4682" x2="1521.5776" y2="446.4682" gradientTransform="matrix(1 0 0 -1 0 794.6)">
		<stop  offset="0" style="stop-color:#36363D"/>
		<stop  offset="1" style="stop-color:#1D1E25"/>
	</linearGradient>
	<path class="st8" d="M1470.1,502.2c4.4,5.4,12.7,9.7,20.5,11.5c9.7,0.1,19.4,0.2,29.2,0.4c21.5,0,43,0,64.4,0c0-8.9,0-17.8,0-26.6
		c-20.5,0-41,0-61.6,0c-9.4,0-20.8,1.1-26.3-2.9c-8.8-6.5-6.6-25.4-6.5-40.7c23.9,0,47.8,0,71.6,0c0-9.1,0-18.2,0-27.4
		c-23.8,0-47.5,0-71.3,0c-0.1-14.9-2.1-32.5,6.5-38.9c5.4-4,16.6-2.9,25.9-2.9c20.4,0,40.8,0,61.2,0c0.1-8.9,0.2-17.8,0.4-26.6
		c-30.8,0.1-61.7,0.2-92.5,0.4c-5.1,1-10.2,3-14,5.4c-5.7,3.6-11.6,10.1-14.4,16.6c-4.4,10.1-3.6,25.6-3.6,40.3
		C1459.7,444,1455,483.7,1470.1,502.2z"/>
	<path class="st3" d="M2041.1,415.1c-4.8,13.2-9.6,26.4-14.4,39.6c9.7,0,19.4,0,29.2,0C2054.4,449.4,2043.5,417.1,2041.1,415.1z"/>
	<path class="st3" d="M1504,476c-4.5-2.2-3.1-13.9-2.9-20.5c23.8,0,47.5,0,71.3,0c0-1.5,0-3-0.1-4.6v-10.3c1.4-0.9,2.3-2.5,2.3-4.3
		c0-2.8-2.3-5.2-5.2-5.2c-2.8,0-5.2,2.3-5.2,5.2c0,1.8,0.9,3.4,2.3,4.3v9.1c-23.9,0-47.7,0-71.6,0c-0.1,9.8-1.9,25.7,4.3,30.2
		c5,3.7,17.6,2.2,25.9,2.2c21.5,0,43,0,64.4,0c0,12.7,0,25.4,0,38.2c-23,0-46.1,0-69.1,0c-11.9,0-25.9,1.1-35.3-1.8
		c-11.1-3.5-20.1-11.3-25.6-20.5c-9.6-16.2-5.9-51.6-5.8-76.7c-1.8,0-3.6,0-5.4,0c-0.1,26.7-3.7,62.4,6.5,79.6
		c5.8,9.8,15.5,18.3,27,22.3c10.5,3.7,26.4,2.5,40.3,2.5c24.5,0,49,0,73.4,0c0-16.3,0-32.6,0-49c-21,0-42,0-63,0
		C1523.2,476.4,1513.6,476.2,1504,476z"/>
	<path class="st3" d="M1840.6,476.2c-0.9-0.1-1.7-1.6-1.4-2.5c0.4-1.5,0.9-3.2,0-4.9l0,0c-0.8-1.9-2.6-3.3-4.8-3.3
		c-2.8,0-5.2,2.3-5.2,5.2c0,0.7,0.1,1.4,0.4,2l0,0l0,0l0,0c1.4,3.3,5.4,8.8,9.9,9c25.1,0.1,50.2,0.2,75.2,0.4v38.1
		c-20.4,0-40.8,0-61.2,0c-10.4,0-22.6,1.1-31-1.4c-12.8-3.8-23.7-13-28.8-24.5c-7.5-17-4.1-49.7-4-73.1h-5.4
		c-0.1,24.9-3.3,58.2,4.7,76c5.6,12.4,17.5,22.4,31.3,26.6c9.3,2.8,23.1,1.8,34.9,1.8c21.6,0,43.2,0,64.8,0
		c0.1-16.3,0.2-32.6,0.4-49c-18.2,0-36.5,0-54.7,0C1856.9,476.7,1847.6,477.1,1840.6,476.2z"/>
	<path class="st3" d="M1376.5,465.6c-2.8,0-5.2,2.3-5.2,5.2c0,1.8,0.9,3.4,2.3,4.3v11l0,0c0,11.4,0,22.8,0,34.2
		c-13.7-0.1-27.4-0.2-41-0.4c0-31,0-62,0-93c0-1.8,0-3.5,0-5.3v-0.5h-5.8v0.1c0,1.9,0,3.7,0,5.6c0,32.9,0,65.9,0,98.8
		c17.5,0,35,0,52.6,0c0-14,0-28.1,0-42.1l0,0V475c1.4-0.9,2.3-2.5,2.3-4.3C1381.7,468,1379.4,465.6,1376.5,465.6z"/>
	<path class="st3" d="M1758.8,464.5c-2.8,0-5.2,2.3-5.2,5.2c0,2.2,1.4,4.1,3.3,4.8c1.8,9.5-7.6,24.4-10.8,28.6
		c-5.7,7.6-13.7,13.4-24.1,16.2c-8.8,2.4-21.6,1.1-32,1.1c-22.9-0.1-45.8-0.2-68.8-0.4c0.1-14,0.2-28.1,0.4-42.1
		c20.8,0,41.5,0,62.3,0c8,0,20.4,1.5,25.6-1.8c3.4-2.2,6.5-7.9,5-14.8c-3.5-16.1-34.1-6.3-51.1-9c-19-3.1-36.5-13-40-31
		c-1.9,0-3.6,0-5.5,0c0,0.1,0.1,0.6,0.1,0.7c5.9,19.8,19.4,31.8,43.8,35.7c14.5,2.3,32.3-2.7,45,1.1c1.9,1.4,2.5,3.4,2.8,5.6
		c0.2,2-0.3,4-1.4,5.2c-2.7,4.4-16.9,2.5-23.7,2.5c-22.9-0.1-45.8-0.2-68.8-0.4c0,18,0,36,0,54c23.6,0,47.3,0,70.9,0
		c11,0,24.4,1.4,34.2-0.7c6.7-1.5,12.9-4,18-7.2c10.2-6.5,18.7-18.1,22.1-31.2c0.7-2.7,2.2-7.9,1.9-14c0.6-0.8,0.9-1.8,0.9-2.9
		C1764,466.8,1761.7,464.5,1758.8,464.5z"/>
	<path class="st3" d="M2016.8,467.7c-2.6-1.2-5.6-0.1-6.9,2.5c-0.8,1.7-0.6,3.6,0.4,5.1l-4.6,9.8l0,0c-4.7,11.5-9.7,23.3-14.3,34.8
		c-14.5,0.1-29,0.2-43.6,0.4c13.7-33,27.4-66,41-99c-1.9,0-3.8,0-5.8,0c-14.6,34.7-29.3,69.4-43.9,104c0,0.1,0,0.2,0,0.4
		c18.6,0,37.2,0,55.8,0c4-11.8,9.6-25.8,15.7-38.5l4.7-9.7c1.6-0.3,3.1-1.3,3.9-2.9C2020.4,472,2019.3,469,2016.8,467.7z"/>
	<path class="st3" d="M1623.9,398.8c0-1.8-0.9-3.4-2.3-4.3v-10.7c0-0.5,0-0.9,0.1-1.4c2.9-17.7,12.3-30.6,26.6-36.7
		c9.6-4.1,24.4-3.2,38.2-3.2c23.2,0,46.3,0,69.5,0v42.1c-20.9,0-41.8,0-62.6,0c-8,0-20.4-1.5-25.6,1.8c-3.2,2.1-6.4,7.7-5,14
		c3.7,17.4,35.2,6.7,53.3,9.7c20.7,3.5,39.5,17.1,40,40.3c1.8,0,5.4,0.1,5.8,0.1c-0.5-26.2-21.4-42-45-45.8c-12.5-2-34.5,3.3-45-0.7
		c-4.9-2.3-3.3-9.8-0.7-13c8-1.9,19.9-0.7,29.2-0.7c20.5,0,41,0,61.6,0c0.1-17.9,0.2-35.8,0.4-53.6c-24.1,0-48.2,0-72.4,0
		c-12.7,0-28.1-1.3-38.2,1.8c-14.4,4.4-25.2,14.5-31,27.7c-0.6,1.3-2.7,8-3.9,12.8c-0.6,2.3-0.8,4.3-0.8,4.7c0,2.5,0,9.3,0,10.9
		c-1.4,0.9-2.3,2.5-2.3,4.3c0,2.8,2.3,5.2,5.2,5.2S1623.9,401.6,1623.9,398.8z"/>
	<path class="st3" d="M1792.2,398.9c0-1.8-0.9-3.4-2.4-4.3v-10.9l0,0c0-13.8,0-27.5,0-41.3c14,0,28.1,0,42.1,0
		c0,36.2,0,72.5,0,108.7c1.7,0,3.4,0,5,0c0.1-38.2,0.2-76.3,0.4-114.5c-17.6,0-35.3,0-52.9,0c0,19,0,37.9,0,56.9l0,0v1
		c-1.5,0.9-2.5,2.5-2.5,4.4c0,2.8,2.3,5.2,5.2,5.2C1789.9,404.1,1792.2,401.8,1792.2,398.9z"/>
	<g>
		<path class="st1" d="M2366.9,451.1c5.3-11.4,10.6-22.8,15.8-34.2c12.1-26.5,24.2-53,36.4-79.6c-19.6,0-39.1,0-58.7,0
			c-13.7,32.3-27.4,64.6-41,96.8c-0.1,0-0.2,0-0.4,0c-12.2-33.7-24.5-67.4-36.7-101.2c-2.9-7.5-8.4-30.3-13-34.6
			c-16.2,45.2-32.4,90.5-48.6,135.7c-0.2,0.1-0.5,0.2-0.7,0.4c-13.3-32.2-26.6-64.3-40-96.5c-4.8-1.4-12.4-0.7-18.4-0.7
			c-13.9,0.1-27.8,0.2-41.8,0.4c8.4,18.1,14,30.3,22.4,48.4l4.7,9.9c-0.8,1.4-1,3.2-0.2,4.8c1.2,2.6,4.3,3.7,6.9,2.4
			c2.6-1.2,3.7-4.3,2.4-6.9c-0.8-1.6-2.3-2.6-3.9-2.9l-4.4-9.2l0,0c-6.7-15.1-11.8-26-18.6-41.2c15.4,0,30.7,0,46.1,0
			c14.9,35.8,29.8,71.5,44.6,107.3c0.1,0,0.2,0,0.4,0c16.2-44.8,32.4-89.5,48.6-134.3c0.2-0.1,0.5-0.2,0.7-0.4
			c16.2,44.8,32.4,89.5,48.6,134.3c0.2,0.1,0.5,0.2,0.7,0.4c14.8-35.6,29.5-71.3,44.3-106.9c15.6,0,31.2,0,46.8,0
			c-16.3,35.9-32.6,71.8-49,107.6C2363,451.1,2365,451.1,2366.9,451.1z"/>
		<path class="st1" d="M2447.2,337.4c-7.8,18.1-12.3,28.5-20.1,46.6l-4.2,10.1c-1.6,0.3-3.1,1.4-3.7,3.1c-1.1,2.6,0.2,5.6,2.8,6.7
			c2.6,1.1,5.6-0.2,6.7-2.8c0.7-1.6,0.4-3.4-0.5-4.8l4-9.7c4.8-10.8,7.3-16.9,12.1-27.7c2.2-5.3,4.3-10.6,6.5-15.8
			c13.3,0,26.6,0,40,0c25.7,59,51.4,118.1,77,177.1c-15.1-0.1-30.2-0.2-45.4-0.4c-7.1-17.4-14.2-34.8-21.2-52.2c-10.3,0-20.6,0-31,0
			c-1.1,1.7-1.4,3-2.5,5.4c9.8,0,19.7,0,29.5,0c7.2,17.5,14.4,35,21.6,52.6c19.2,0,38.4,0,57.6,0c-27.1-62.8-54.2-125.5-81.4-188.3
			C2479.1,337.4,2463.1,337.4,2447.2,337.4z"/>
		<path class="st1" d="M2552.6,389.9c15.8,0,31.7,0,47.5,0c0.1,0,0.6,0,0.8,0l0.1,5.8c-1.4,0.9-2.3,2.5-2.2,4.3
			c0,2.8,2.4,5.1,5.2,5.1c2.8,0,5.1-2.4,5.1-5.2c0-1.8-0.9-3.3-2.3-4.3l-0.1-7.1l0,0c0,0,0-2.9,0-4c-16,0-31.9,0-47.9,0
			c0-13.7,0-27.4,0-41c45.5-0.1,91-0.2,136.4-0.4c0,13.8,0,27.6,0,41.4c-15.8,0-31.7,0-47.5,0c0.1,22.2,0.2,44.4,0.4,66.6
			c1.9,0,3.8,0,5.8,0c0-20.3,0-40.6,0-60.8c15.6,0,31.2,0,46.8,0c0.1-17.6,0.2-35.3,0.4-52.9c-49.3,0-98.6,0-148,0
			C2552.9,354.9,2552.8,372.4,2552.6,389.9z"/>
		<path class="st1" d="M2719.7,337.4c0,17.5,0,35,0,52.6c15.9,0.1,32.3,0.2,48.2,0.4v2.8l0,0l0,0v1.9c-1.4,0.9-2.3,2.5-2.3,4.3
			c0,2.8,2.3,5.2,5.2,5.1c2.8,0,5.2-2.3,5.1-5.2c0-1.8-0.9-3.3-2.3-4.3v-8.4c0-0.7,0-1.4,0-2.1c-16,0-31.9,0-47.9,0
			c-0.1-13.7-0.2-27.4-0.4-41c0-0.1,0-0.2,0-0.4c45.6,0,91.2,0,136.8,0c0,13.8,0,27.6,0,41.4c-15.8,0-31.7,0-47.5,0
			c0,22.2,0,44.4,0,66.6c2.1,0,5.6,0,5.8,0c0-20.4,0-40.5,0-60.8c15.7,0,31.4,0,47.2,0c0.1-17.6,0.2-35.3,0.4-52.9
			C2818.6,337.4,2769.1,337.4,2719.7,337.4z"/>
		<path class="st1" d="M2475.2,398.6c-1.6-4-2.8-7.5-5.4-13.3c-6.4,17.8-12.7,35.5-19.1,53.3c13,0,25.9,0,38.9,0
			C2484.8,425.2,2480,411.9,2475.2,398.6z M2470.2,400c4.1,11.2,8.2,22.3,12.2,33.5c-8,0-16.1,0-24.1,0
			C2462.3,422.3,2466.2,411.2,2470.2,400z"/>
		<path class="st1" d="M2358.2,465.9c-2.5-1.3-5.6-0.2-6.9,2.3c-0.8,1.6-0.7,3.4,0.1,4.8l-4.9,9.8c-10.6,23-17,37.4-27.5,60.4
			c-0.3,0.2-0.9,2.3-1.2,2.5c-0.3,0.2-0.3-0.4-0.6-1.1c-15.5-40.7-31-81.4-46.4-122c-0.5-0.4-1-0.7-1.4-1.1
			c-15.8,41.2-31.7,82.3-47.5,123.5c-4.6-4-12.7-26.8-15.8-33.8c-13.9-30-27.8-60-41.8-90c-1.9,0-3.8,0-5.8,0
			c20.9,46.1,41.8,92.2,62.6,138.2c0.1,0,0.2,0,0.4,0c4.9-4.4,9.3-23.4,12.2-30.6c12-30.5,24-61,36-91.4c0.1-0.2,0.2-0.5,0.4-0.7
			c15.6,40.9,31.2,81.8,46.8,122.8c0.1,0.2,0.1,0.4,0.1,0.4s0.4,0,0.6,0c5.4-11.5,10.8-23,16.2-34.6c7.9-18,9.4-23.5,17.9-39.8
			l4.9-9.8c1.6-0.2,3.2-1.2,3.9-2.8C2361.8,470.3,2360.8,467.2,2358.2,465.9z"/>
		<path class="st1" d="M2443.8,467.3c-2.6-1.1-5.6,0.2-6.7,2.8c-0.7,1.7-0.4,3.4,0.5,4.8l-4.1,10.2c-4.1,9.7-4.9,11.7-9,21.4
			c-1.8,4.6-3.6,9.1-5.4,13.7c-14.4,0-28.8,0-43.2,0c13.8-33,27.6-66,41.4-99c-1.9,0-3.8,0-5.8,0c-14.9,34.6-29.8,69.1-44.6,103.7
			c0,0.1,0,0.2,0,0.4c18.7,0.1,37.4,0.2,56.2,0.4c6.2-15.5,9.5-22.9,15.8-38.4l4.1-10.2c1.6-0.3,3-1.5,3.7-3.1
			C2447.7,471.4,2446.4,468.4,2443.8,467.3z"/>
		<path class="st1" d="M2650.8,464.9c-2.8,0-5.2,2.3-5.1,5.2c0,1.8,0.9,3.3,2.3,4.3v11c0,14.9-0.3,20.1-0.3,34.9
			c-13.7-0.1-27.4-0.2-41-0.4c0-32.9,0-65.8,0-98.6c-1.9,0-3.8,0-5.8,0c0,34.8,0,69.6,0,104.4c17.6,0,35.3,0,52.9,0
			c0-16.6-0.1-23.8-0.1-40.4v-11c1.4-0.9,2.3-2.5,2.3-4.3C2655.9,467.2,2653.6,464.9,2650.8,464.9z"/>
		<path class="st1" d="M2817.6,464.8c-2.8,0-5.2,2.3-5.1,5.2c0,1.8,0.9,3.3,2.3,4.3v11c0,14.9-0.1,20.2-0.1,35.1
			c-13.7-0.1-27.4-0.2-41-0.4c-0.1-32.9-0.2-65.8-0.4-98.6c-1.8,0-3.6,0-5.4,0c0,34.8,0,69.6,0,104.4c17.6,0,35.3,0,52.9,0
			c0-14.3-0.3-26.2-0.3-40.5v-11c1.4-0.9,2.3-2.5,2.3-4.3C2822.8,467.1,2820.5,464.8,2817.6,464.8z"/>
	</g>
</g>
<g id="Layer_2">
</g>
</svg>
